<?xml version="1.0" encoding="iso-8859-1"?>
<!-- Generator: Adobe Illustrator 16.0.0, SVG Export Plug-In . SVG Version: 6.00 Build 0)  -->
<!DOCTYPE svg PUBLIC "-//W3C//DTD SVG 1.1//EN" "http://www.w3.org/Graphics/SVG/1.1/DTD/svg11.dtd">
<svg xmlns="http://www.w3.org/2000/svg" xmlns:xlink="http://www.w3.org/1999/xlink" version="1.1" id="Capa_1" x="0px" y="0px" width="512px" height="512px" viewBox="0 0 98.706 98.707" style="enable-background:new 0 0 98.706 98.707;" xml:space="preserve">
<g>
	<g>
		<path d="M77.59,9.541H20.453v38.531h57.138L77.59,9.541L77.59,9.541z M76.59,47.071H21.453V10.541h55.138L76.59,47.071    L76.59,47.071z" fill="#FFDA44"/>
		<path d="M16.667,72.513l0.206-2.824H12.83l-0.202,2.763l1.828,2.063L16.667,72.513z M13.76,70.689h2.037l-0.099,1.353    l-1.164,1.056l-0.879-0.992L13.76,70.689z" fill="#FFDA44"/>
		<path d="M84.133,65.832c0.45,0.049,0.896,0.012,1.305-0.094c-0.539,0.271-0.942,0.675-1.103,1.148    c-0.144,0.424-0.088,0.867,0.157,1.25c0.35,0.545,1.037,0.907,1.887,0.995c0.129,0.015,0.258,0.021,0.385,0.021    c1.281,0,2.394-0.623,2.701-1.518c0.143-0.422,0.088-0.863-0.156-1.244c-0.351-0.547-1.039-0.912-1.891-1.002    c-0.445-0.047-0.896-0.009-1.304,0.096c0.536-0.271,0.938-0.674,1.096-1.147c0.146-0.424,0.093-0.868-0.153-1.251    c-0.349-0.545-1.033-0.908-1.879-0.994c-1.435-0.15-2.753,0.512-3.086,1.493c-0.145,0.425-0.089,0.869,0.156,1.251    C82.6,65.38,83.286,65.745,84.133,65.832z M87.043,66.369c0.092,0,0.184,0.005,0.271,0.014c0.634,0.067,1.011,0.327,1.15,0.549    c0.08,0.125,0.098,0.25,0.053,0.381c-0.156,0.453-1.019,0.929-2.035,0.826c-0.633-0.064-1.01-0.322-1.148-0.541    c-0.081-0.127-0.098-0.254-0.052-0.391C85.418,66.802,86.13,66.369,87.043,66.369z M83.04,63.906    c0.14-0.41,0.83-0.836,1.746-0.836c0.095,0,0.19,0.006,0.289,0.016c0.628,0.064,1,0.321,1.14,0.539    c0.081,0.126,0.098,0.252,0.049,0.393c-0.146,0.442-1.009,0.924-2.027,0.82c-0.629-0.064-1.004-0.322-1.146-0.541    C83.009,64.169,82.993,64.042,83.04,63.906z" fill="#FFDA44"/>
		<path d="M12.301,76.939l-0.207,2.814h4.043l0.203-2.773l-1.964-2.053L12.301,76.939z M15.207,78.753H13.17l0.1-1.361l1.079-1.047    l0.962,1.004L15.207,78.753z" fill="#FFDA44"/>
		<path d="M86.195,78.349c-3.532,0-6.301,1.748-6.301,3.979s2.769,3.979,6.301,3.979c3.531,0,6.299-1.748,6.299-3.979    S89.727,78.349,86.195,78.349z M86.195,85.308c-2.873,0-5.301-1.365-5.301-2.979c0-1.615,2.428-2.979,5.301-2.979    c2.871,0,5.299,1.364,5.299,2.979C91.494,83.943,89.066,85.308,86.195,85.308z" fill="#FFDA44"/>
		<path d="M91.734,60.115c-0.024-1.465-1.031-2.719-2.524-3.312c1.367-0.863,2.235-2.373,2.235-4.07V5.701    c0-2.661-2.164-4.826-4.824-4.826H10.667c-2.66,0-4.824,2.165-4.824,4.826v47.031c0,1.65,0.832,3.134,2.146,4.006    C6.405,57.31,5.315,58.611,5.32,60.09L0,94.077c0,2.069,2.012,3.755,4.484,3.755h89.739c2.473,0,4.483-1.686,4.483-3.755    L91.734,60.115z M6.843,52.732V5.701c0-2.109,1.716-3.826,3.824-3.826H86.62c2.108,0,3.823,1.717,3.823,3.826v47.031    c0,1.728-1.145,3.199-2.795,3.662H9.636C7.988,55.931,6.843,54.452,6.843,52.732z M94.223,96.832H4.484    c-1.921,0-3.484-1.234-3.49-2.678l5.32-33.986c0-1.484,1.478-2.688,3.363-2.738l0.004-0.033h77.131l0.729,0.047    c1.791,0.119,3.193,1.314,3.193,2.726l6.972,33.957C97.673,95.622,96.124,96.832,94.223,96.832z" fill="#FFDA44"/>
		<path d="M12.132,72.793H9.239l-0.282,3.853h2.938l2.312-1.836L12.132,72.793z M11.546,75.646h-1.513l0.136-1.853h1.557l0.968,0.94    L11.546,75.646z" fill="#FFDA44"/>
		<path d="M81.611,71.386c0.125,0.012,0.25,0.02,0.375,0.02c1.285,0,2.398-0.624,2.709-1.52c0.145-0.423,0.089-0.865-0.156-1.246    c-0.352-0.549-1.038-0.912-1.889-1.002c-1.41-0.137-2.756,0.534-3.086,1.498c-0.144,0.424-0.088,0.865,0.156,1.248    C80.07,70.931,80.758,71.295,81.611,71.386z M80.512,69.458c0.139-0.402,0.853-0.839,1.766-0.839c0.091,0,0.183,0.004,0.271,0.013    c0.632,0.066,1.007,0.325,1.147,0.547c0.08,0.125,0.099,0.252,0.054,0.381c-0.158,0.457-1.045,0.928-2.036,0.832    c-0.634-0.067-1.01-0.326-1.15-0.547C80.482,69.72,80.466,69.593,80.512,69.458z" fill="#FFDA44"/>
		<path d="M79.898,67.943c1.285,0,2.396-0.623,2.707-1.52c0.144-0.422,0.088-0.863-0.156-1.246c-0.352-0.548-1.038-0.912-1.889-1    c-1.412-0.14-2.756,0.532-3.086,1.495c-0.144,0.425-0.088,0.868,0.156,1.25c0.35,0.546,1.036,0.91,1.889,1.001    C79.646,67.937,79.773,67.943,79.898,67.943z M78.475,66.384c-0.082-0.127-0.099-0.255-0.053-0.391    c0.137-0.4,0.852-0.835,1.766-0.835c0.092,0,0.183,0.004,0.271,0.013c0.631,0.064,1.006,0.325,1.146,0.545    c0.08,0.125,0.098,0.252,0.053,0.383c-0.143,0.416-0.842,0.844-1.76,0.844c-0.094,0-0.187-0.004-0.275-0.014    C78.99,66.861,78.614,66.603,78.475,66.384z" fill="#FFDA44"/>
		<path d="M14.641,74.763l2.098,1.883h2.882l0.281-3.853h-2.947L14.641,74.763z M18.826,73.793l-0.135,1.853h-1.569l-0.961-0.863    l1.161-0.988L18.826,73.793L18.826,73.793z" fill="#FFDA44"/>
		<path d="M25.206,61.447l-2.483,25.718H75.32l-2.346-25.718H25.206z M23.824,86.165l2.29-23.718h45.948l2.16,23.718H23.824z" fill="#FFDA44"/>
	</g>
</g>
<g>
</g>
<g>
</g>
<g>
</g>
<g>
</g>
<g>
</g>
<g>
</g>
<g>
</g>
<g>
</g>
<g>
</g>
<g>
</g>
<g>
</g>
<g>
</g>
<g>
</g>
<g>
</g>
<g>
</g>
</svg>
